<svg width="42" height="29" viewBox="0 0 42 29" fill="none" xmlns="http://www.w3.org/2000/svg">
<path d="M40.215 2.7825C39.0758 0.756 37.8394 0.38325 35.322 0.2415C32.8073 0.070875 26.4836 0 21.0053 0C15.5164 0 9.19013 0.0708752 6.678 0.238875C4.16587 0.38325 2.92688 0.753375 1.77713 2.7825C0.60375 4.80638 0 8.29238 0 14.4296C0 14.4349 0 14.4375 0 14.4375C0 14.4427 0 14.4454 0 14.4454V14.4506C0 20.5616 0.60375 24.0739 1.77713 26.0767C2.92688 28.1033 4.16325 28.4708 6.67538 28.6414C9.19013 28.7884 15.5164 28.875 21.0053 28.875C26.4836 28.875 32.8073 28.7884 35.3246 28.644C37.842 28.4734 39.0784 28.1059 40.2176 26.0794C41.4015 24.0765 42 20.5642 42 14.4532C42 14.4532 42 14.4454 42 14.4401C42 14.4401 42 14.4349 42 14.4323C42 8.29238 41.4015 4.80638 40.215 2.7825ZM15.75 22.3125V6.5625L28.875 14.4375L15.75 22.3125Z" fill="white"/>
</svg>
