<svg width="35" height="35" viewBox="0 0 35 35" fill="none" xmlns="http://www.w3.org/2000/svg">
<path d="M33.066 0H1.9317C0.865578 0 0 0.863863 0 1.93173V33.0665C0 34.1344 0.865578 34.9994 1.9317 34.9994H18.6935V21.4456H14.1328V16.1627H18.6935V12.267C18.6935 7.74711 21.4533 5.28461 25.4861 5.28461C27.4196 5.28461 29.0775 5.42926 29.561 5.49207V10.2165L26.7638 10.2177C24.571 10.2177 24.148 11.2602 24.148 12.7891V16.161H29.3795L28.6955 21.4433H24.1474V34.9977H33.0654C34.1327 34.9977 34.9988 34.1315 34.9988 33.0665V1.93058C34.9983 0.863863 34.1333 0 33.066 0Z" fill="white"/>
</svg>
