<svg width="33" height="24" viewBox="0 0 33 24" fill="none" xmlns="http://www.w3.org/2000/svg">
<path d="M0 3C0 1.34315 1.34315 0 3 0H13.5C14.0523 0 14.5 0.447715 14.5 1V9C14.5 9.55228 14.0523 10 13.5 10H1C0.447715 10 0 9.55229 0 9V3Z" fill="#212B3A"/>
<path d="M0 15C0 14.4477 0.447715 14 1 14H13.5C14.0523 14 14.5 14.4477 14.5 15V23C14.5 23.5523 14.0523 24 13.5 24H3C1.34315 24 0 22.6569 0 21V15Z" fill="#212B3A"/>
<path d="M18.5 1C18.5 0.447715 18.9477 0 19.5 0H30C31.6569 0 33 1.34315 33 3V9C33 9.55228 32.5523 10 32 10H19.5C18.9477 10 18.5 9.55229 18.5 9V1Z" fill="#212B3A"/>
<path d="M18.5 15C18.5 14.4477 18.9477 14 19.5 14H32C32.5523 14 33 14.4477 33 15V21C33 22.6569 31.6569 24 30 24H19.5C18.9477 24 18.5 23.5523 18.5 23V15Z" fill="#212B3A"/>
</svg>
