<svg width="22" height="22" viewBox="0 0 22 22" fill="none" xmlns="http://www.w3.org/2000/svg">
<path d="M20.5455 10.7128C18.486 6.90557 14.8744 4.60168 10.8777 4.60168C6.88103 4.60168 3.26325 6.90557 1.22214 10.7128L1.05103 11L1.20991 11.2934C3.26936 15.1006 6.88103 17.4045 10.8777 17.4045C14.8744 17.4045 18.4921 15.1311 20.5455 11.2934L20.7044 11L20.5455 10.7128ZM10.8777 16.1517C7.43714 16.1517 4.27769 14.2328 2.44436 11C4.27769 7.76724 7.43714 5.84835 10.8777 5.84835C14.3182 5.84835 17.441 7.77335 19.3049 11C17.441 14.2328 14.3121 16.1517 10.8777 16.1517Z" fill="white"/>
<path d="M11.0549 6.82616C10.2263 6.83221 9.41813 7.08367 8.73236 7.54879C8.0466 8.01391 7.51405 8.67182 7.20198 9.43942C6.88992 10.207 6.81232 11.0499 6.97901 11.8616C7.14569 12.6733 7.54917 13.4173 8.1385 13.9998C8.72782 14.5823 9.47654 14.9771 10.2901 15.1343C11.1037 15.2916 11.9456 15.2042 12.7095 14.8832C13.4734 14.5622 14.1251 14.022 14.5822 13.3309C15.0393 12.6398 15.2813 11.8287 15.2777 11.0001C15.2753 10.4485 15.1641 9.90281 14.9504 9.39431C14.7368 8.8858 14.4249 8.42446 14.0326 8.03671C13.6403 7.64897 13.1753 7.34245 12.6644 7.13472C12.1534 6.92699 11.6065 6.82214 11.0549 6.82616ZM11.0549 13.9884C10.4697 13.9824 9.89919 13.8035 9.41521 13.4743C8.93123 13.1451 8.55531 12.6803 8.33466 12.1381C8.11402 11.596 8.05848 11.0008 8.17502 10.4272C8.29157 9.85356 8.57501 9.32719 8.98974 8.91415C9.40446 8.50111 9.93199 8.21983 10.5061 8.10562C11.0801 7.99142 11.6751 8.04939 12.2164 8.27225C12.7576 8.49511 13.2209 8.87292 13.5481 9.35824C13.8753 9.84356 14.0518 10.4147 14.0555 11.0001C14.0571 11.394 13.9805 11.7843 13.8302 12.1484C13.6798 12.5125 13.4587 12.8431 13.1795 13.1211C12.9004 13.3991 12.5689 13.6189 12.2042 13.7677C11.8395 13.9166 11.4489 13.9916 11.0549 13.9884Z" fill="white"/>
</svg>
